<?xml version="1.0" encoding="utf-8"?>
<!-- Generator: Adobe Illustrator 16.0.0, SVG Export Plug-In . SVG Version: 6.00 Build 0)  -->
<!DOCTYPE svg PUBLIC "-//W3C//DTD SVG 1.1//EN" "http://www.w3.org/Graphics/SVG/1.1/DTD/svg11.dtd">
<svg version="1.1" id="Layer_1" xmlns="http://www.w3.org/2000/svg" xmlns:xlink="http://www.w3.org/1999/xlink" x="0px" y="0px"
	 width="40px" height="27px" viewBox="0 0 40 27" enable-background="new 0 0 40 27" xml:space="preserve">
<g>
	<path d="M10.697,5.187C9.068,5.257,8.751,5.503,8.751,7.25v11.906c0,1.747,0.316,1.993,1.945,1.993h1.758
		c3,0,3.598-1.148,3.938-4.489h0.551c-0.047,0.504-0.07,1.195-0.07,1.969c0,0.598,0.047,1.852,0.164,3.071
		c-1.629-0.07-3.891-0.07-5.496-0.07c-1.441,0-4.605,0-6.961,0.07v-0.48c1.629-0.07,1.945-0.316,1.945-2.063V7.25
		c0-1.746-0.316-1.992-1.945-2.063v-0.48c0.668,0.047,1.828,0.07,3.07,0.07c1.102,0,2.309-0.023,3.047-0.07V5.187z"/>
	<path opacity="0.5" d="M35.42,5.187c-1.629,0.07-1.945,0.316-1.945,2.063v11.906c0,1.747,0.316,1.993,1.945,2.063v0.48
		c-0.668-0.047-1.816-0.07-3.07-0.07c-1.102,0-2.297,0.023-3.047,0.07v-0.48c1.629-0.07,1.945-0.316,1.945-2.063V13.39h-7.805v5.766
		c0,1.747,0.316,1.993,1.945,2.063v0.48c-0.738-0.047-1.945-0.07-3.047-0.07c-1.242,0-2.402,0.023-3.07,0.07v-0.48
		c1.629-0.07,1.945-0.316,1.945-2.063V7.25c0-1.746-0.316-1.992-1.945-2.063v-0.48c0.668,0.047,1.828,0.07,3.07,0.07
		c1.102,0,2.309-0.023,3.047-0.07v0.48c-1.629,0.07-1.945,0.316-1.945,2.063v5.66h7.805V7.25c0-1.746-0.316-1.992-1.945-2.063v-0.48
		c0.75,0.047,1.945,0.07,3.047,0.07c1.254,0,2.402-0.023,3.07-0.07V5.187z"/>
</g>
<path d="M40,27H0V0h40V27z M1,26h38V1H1V26z"/>
</svg>
